<svg xmlns="http://www.w3.org/2000/svg" xmlns:xlink="http://www.w3.org/1999/xlink" width="200" zoomAndPan="magnify" viewBox="0 0 150 37.5" height="50" preserveAspectRatio="xMidYMid meet" version="1.0"><defs><g/><clipPath id="dd47625e2f"><path d="M 0.988281 0 L 149.011719 0 L 149.011719 37 L 0.988281 37 Z M 0.988281 0 " clip-rule="nonzero"/></clipPath><clipPath id="176717a0d9"><rect x="0" width="150" y="0" height="37"/></clipPath><clipPath id="496898c6d8"><path d="M 83.75 1.769531 L 90.261719 1.769531 L 90.261719 8.28125 L 83.75 8.28125 Z M 83.75 1.769531 " clip-rule="nonzero"/></clipPath><clipPath id="8a1dd053dc"><path d="M 87.007812 1.769531 C 85.207031 1.769531 83.75 3.226562 83.75 5.027344 C 83.75 6.824219 85.207031 8.28125 87.007812 8.28125 C 88.804688 8.28125 90.261719 6.824219 90.261719 5.027344 C 90.261719 3.226562 88.804688 1.769531 87.007812 1.769531 Z M 87.007812 1.769531 " clip-rule="nonzero"/></clipPath><clipPath id="5242155048"><path d="M 0.75 0.769531 L 7.261719 0.769531 L 7.261719 7.28125 L 0.75 7.28125 Z M 0.75 0.769531 " clip-rule="nonzero"/></clipPath><clipPath id="b52ae2a50b"><path d="M 4.007812 0.769531 C 2.207031 0.769531 0.75 2.226562 0.75 4.027344 C 0.75 5.824219 2.207031 7.28125 4.007812 7.28125 C 5.804688 7.28125 7.261719 5.824219 7.261719 4.027344 C 7.261719 2.226562 5.804688 0.769531 4.007812 0.769531 Z M 4.007812 0.769531 " clip-rule="nonzero"/></clipPath><clipPath id="9d36879cfd"><rect x="0" width="8" y="0" height="8"/></clipPath><clipPath id="a11ac6856b"><path d="M 123.84375 1.769531 L 130.355469 1.769531 L 130.355469 8.28125 L 123.84375 8.28125 Z M 123.84375 1.769531 " clip-rule="nonzero"/></clipPath><clipPath id="b541f53bb4"><path d="M 127.097656 1.769531 C 125.300781 1.769531 123.84375 3.226562 123.84375 5.027344 C 123.84375 6.824219 125.300781 8.28125 127.097656 8.28125 C 128.898438 8.28125 130.355469 6.824219 130.355469 5.027344 C 130.355469 3.226562 128.898438 1.769531 127.097656 1.769531 Z M 127.097656 1.769531 " clip-rule="nonzero"/></clipPath><clipPath id="e7e6c34a75"><path d="M 0.84375 0.769531 L 7.355469 0.769531 L 7.355469 7.28125 L 0.84375 7.28125 Z M 0.84375 0.769531 " clip-rule="nonzero"/></clipPath><clipPath id="071de15b3d"><path d="M 4.097656 0.769531 C 2.300781 0.769531 0.84375 2.226562 0.84375 4.027344 C 0.84375 5.824219 2.300781 7.28125 4.097656 7.28125 C 5.898438 7.28125 7.355469 5.824219 7.355469 4.027344 C 7.355469 2.226562 5.898438 0.769531 4.097656 0.769531 Z M 4.097656 0.769531 " clip-rule="nonzero"/></clipPath><clipPath id="bffae16009"><rect x="0" width="8" y="0" height="8"/></clipPath></defs><g clip-path="url(#dd47625e2f)"><g transform="matrix(1, 0, 0, 1, 0.000000000000000222, -0.000000000000001478)"><g clip-path="url(#176717a0d9)"><g fill="#d6ff57" fill-opacity="1"><g transform="translate(1.028234, 25.078563)"><g><path d="M 14.796875 -3.671875 L 7.03125 -3.671875 L 5.78125 0 L 0.46875 0 L 8 -20.8125 L 13.875 -20.8125 L 21.40625 0 L 16.046875 0 Z M 13.5 -7.59375 L 10.90625 -15.21875 L 8.359375 -7.59375 Z M 13.5 -7.59375 "/></g></g></g><g fill="#d6ff57" fill-opacity="1"><g transform="translate(22.870233, 25.078563)"><g><path d="M 6.90625 -20.8125 L 6.90625 0 L 1.84375 0 L 1.84375 -20.8125 Z M 6.90625 -20.8125 "/></g></g></g><g fill="#ffffff" fill-opacity="1"><g transform="translate(31.618588, 25.078563)"><g><path d="M 9.375 0.234375 C 7.75 0.234375 6.285156 -0.109375 4.984375 -0.796875 C 3.691406 -1.492188 2.675781 -2.484375 1.9375 -3.765625 C 1.195312 -5.046875 0.828125 -6.550781 0.828125 -8.28125 C 0.828125 -9.976562 1.203125 -11.472656 1.953125 -12.765625 C 2.703125 -14.054688 3.726562 -15.046875 5.03125 -15.734375 C 6.34375 -16.429688 7.8125 -16.78125 9.4375 -16.78125 C 11.050781 -16.78125 12.507812 -16.429688 13.8125 -15.734375 C 15.125 -15.046875 16.15625 -14.054688 16.90625 -12.765625 C 17.65625 -11.472656 18.03125 -9.976562 18.03125 -8.28125 C 18.03125 -6.570312 17.648438 -5.070312 16.890625 -3.78125 C 16.128906 -2.488281 15.085938 -1.492188 13.765625 -0.796875 C 12.453125 -0.109375 10.988281 0.234375 9.375 0.234375 Z M 9.375 -4.15625 C 10.34375 -4.15625 11.164062 -4.507812 11.84375 -5.21875 C 12.53125 -5.925781 12.875 -6.945312 12.875 -8.28125 C 12.875 -9.601562 12.539062 -10.617188 11.875 -11.328125 C 11.21875 -12.035156 10.40625 -12.390625 9.4375 -12.390625 C 8.445312 -12.390625 7.625 -12.039062 6.96875 -11.34375 C 6.3125 -10.644531 5.984375 -9.625 5.984375 -8.28125 C 5.984375 -6.945312 6.304688 -5.925781 6.953125 -5.21875 C 7.597656 -4.507812 8.40625 -4.15625 9.375 -4.15625 Z M 9.375 -4.15625 "/></g></g></g><g fill="#ffffff" fill-opacity="1"><g transform="translate(50.496958, 25.078563)"><g><path d="M 6.90625 -14.203125 C 7.40625 -14.972656 8.085938 -15.59375 8.953125 -16.0625 C 9.828125 -16.539062 10.847656 -16.78125 12.015625 -16.78125 C 13.378906 -16.78125 14.613281 -16.429688 15.71875 -15.734375 C 16.820312 -15.046875 17.695312 -14.0625 18.34375 -12.78125 C 18.988281 -11.5 19.3125 -10.003906 19.3125 -8.296875 C 19.3125 -6.597656 18.988281 -5.101562 18.34375 -3.8125 C 17.695312 -2.519531 16.820312 -1.519531 15.71875 -0.8125 C 14.613281 -0.113281 13.378906 0.234375 12.015625 0.234375 C 10.867188 0.234375 9.851562 0 8.96875 -0.46875 C 8.09375 -0.945312 7.40625 -1.5625 6.90625 -2.3125 L 6.90625 7.890625 L 1.84375 7.890625 L 1.84375 -16.546875 L 6.90625 -16.546875 Z M 14.140625 -8.296875 C 14.140625 -9.566406 13.789062 -10.5625 13.09375 -11.28125 C 12.394531 -12 11.53125 -12.359375 10.5 -12.359375 C 9.488281 -12.359375 8.628906 -11.992188 7.921875 -11.265625 C 7.222656 -10.535156 6.875 -9.539062 6.875 -8.28125 C 6.875 -7.007812 7.222656 -6.007812 7.921875 -5.28125 C 8.628906 -4.550781 9.488281 -4.1875 10.5 -4.1875 C 11.507812 -4.1875 12.367188 -4.554688 13.078125 -5.296875 C 13.785156 -6.035156 14.140625 -7.035156 14.140625 -8.296875 Z M 14.140625 -8.296875 "/></g></g></g><g fill="#ffffff" fill-opacity="1"><g transform="translate(70.620058, 25.078563)"><g><path d="M 11.0625 -4.296875 L 11.0625 0 L 8.484375 0 C 6.640625 0 5.203125 -0.445312 4.171875 -1.34375 C 3.148438 -2.25 2.640625 -3.71875 2.640625 -5.75 L 2.640625 -12.34375 L 0.625 -12.34375 L 0.625 -16.546875 L 2.640625 -16.546875 L 2.640625 -20.578125 L 7.703125 -20.578125 L 7.703125 -16.546875 L 11.03125 -16.546875 L 11.03125 -12.34375 L 7.703125 -12.34375 L 7.703125 -5.6875 C 7.703125 -5.195312 7.820312 -4.84375 8.0625 -4.625 C 8.300781 -4.40625 8.695312 -4.296875 9.25 -4.296875 Z M 11.0625 -4.296875 "/></g></g></g><g fill="#ffffff" fill-opacity="1"><g transform="translate(82.652421, 25.078563)"><g><path d="M 4.390625 -18.265625 C 3.492188 -18.265625 2.765625 -18.523438 2.203125 -19.046875 C 1.640625 -19.578125 1.359375 -20.226562 1.359375 -21 C 1.359375 -21.789062 1.640625 -22.445312 2.203125 -22.96875 C 2.765625 -23.488281 3.492188 -23.75 4.390625 -23.75 C 5.253906 -23.75 5.96875 -23.488281 6.53125 -22.96875 C 7.101562 -22.445312 7.390625 -21.789062 7.390625 -21 C 7.390625 -20.226562 7.101562 -19.578125 6.53125 -19.046875 C 5.96875 -18.523438 5.253906 -18.265625 4.390625 -18.265625 Z M 6.90625 -16.546875 L 6.90625 0 L 1.84375 0 L 1.84375 -16.546875 Z M 6.90625 -16.546875 "/></g></g></g><g fill="#ffffff" fill-opacity="1"><g transform="translate(91.395155, 25.078563)"><g><path d="M 22.953125 -16.71875 C 25.003906 -16.71875 26.640625 -16.09375 27.859375 -14.84375 C 29.078125 -13.601562 29.6875 -11.878906 29.6875 -9.671875 L 29.6875 0 L 24.640625 0 L 24.640625 -8.984375 C 24.640625 -10.054688 24.359375 -10.882812 23.796875 -11.46875 C 23.234375 -12.050781 22.457031 -12.34375 21.46875 -12.34375 C 20.476562 -12.34375 19.703125 -12.050781 19.140625 -11.46875 C 18.578125 -10.882812 18.296875 -10.054688 18.296875 -8.984375 L 18.296875 0 L 13.25 0 L 13.25 -8.984375 C 13.25 -10.054688 12.96875 -10.882812 12.40625 -11.46875 C 11.84375 -12.050781 11.066406 -12.34375 10.078125 -12.34375 C 9.085938 -12.34375 8.3125 -12.050781 7.75 -11.46875 C 7.1875 -10.882812 6.90625 -10.054688 6.90625 -8.984375 L 6.90625 0 L 1.84375 0 L 1.84375 -16.546875 L 6.90625 -16.546875 L 6.90625 -14.46875 C 7.425781 -15.164062 8.097656 -15.710938 8.921875 -16.109375 C 9.753906 -16.515625 10.695312 -16.71875 11.75 -16.71875 C 12.988281 -16.71875 14.097656 -16.453125 15.078125 -15.921875 C 16.054688 -15.390625 16.820312 -14.628906 17.375 -13.640625 C 17.945312 -14.546875 18.726562 -15.285156 19.71875 -15.859375 C 20.707031 -16.429688 21.785156 -16.71875 22.953125 -16.71875 Z M 22.953125 -16.71875 "/></g></g></g><g fill="#ffffff" fill-opacity="1"><g transform="translate(122.780073, 25.078563)"><g><path d="M 4.390625 -18.265625 C 3.492188 -18.265625 2.765625 -18.523438 2.203125 -19.046875 C 1.640625 -19.578125 1.359375 -20.226562 1.359375 -21 C 1.359375 -21.789062 1.640625 -22.445312 2.203125 -22.96875 C 2.765625 -23.488281 3.492188 -23.75 4.390625 -23.75 C 5.253906 -23.75 5.96875 -23.488281 6.53125 -22.96875 C 7.101562 -22.445312 7.390625 -21.789062 7.390625 -21 C 7.390625 -20.226562 7.101562 -19.578125 6.53125 -19.046875 C 5.96875 -18.523438 5.253906 -18.265625 4.390625 -18.265625 Z M 6.90625 -16.546875 L 6.90625 0 L 1.84375 0 L 1.84375 -16.546875 Z M 6.90625 -16.546875 "/></g></g></g><g fill="#ffffff" fill-opacity="1"><g transform="translate(131.522807, 25.078563)"><g><path d="M 11.625 0 L 8.453125 -4.59375 L 5.78125 0 L 0.296875 0 L 5.75 -8.453125 L 0.140625 -16.546875 L 5.84375 -16.546875 L 9.015625 -11.984375 L 11.6875 -16.546875 L 17.171875 -16.546875 L 11.625 -8.21875 L 17.3125 0 Z M 11.625 0 "/></g></g></g></g></g></g><g clip-path="url(#496898c6d8)"><g clip-path="url(#8a1dd053dc)"><g transform="matrix(1, 0, 0, 1, 83, 1)"><g clip-path="url(#9d36879cfd)"><g clip-path="url(#5242155048)"><g clip-path="url(#b52ae2a50b)"><path fill="#d6ff57" d="M 0.75 0.769531 L 7.261719 0.769531 L 7.261719 7.28125 L 0.75 7.28125 Z M 0.75 0.769531 " fill-opacity="1" fill-rule="nonzero"/></g></g></g></g></g></g><g clip-path="url(#a11ac6856b)"><g clip-path="url(#b541f53bb4)"><g transform="matrix(1, 0, 0, 1, 123, 1)"><g clip-path="url(#bffae16009)"><g clip-path="url(#e7e6c34a75)"><g clip-path="url(#071de15b3d)"><path fill="#d6ff57" d="M 0.84375 0.769531 L 7.355469 0.769531 L 7.355469 7.28125 L 0.84375 7.28125 Z M 0.84375 0.769531 " fill-opacity="1" fill-rule="nonzero"/></g></g></g></g></g></g></svg>